# xmcd
#
# Track frame offsets:
#  150
#  5698
#  27724
#  43104
#  57945
#  75056
#  92687
#  112860
#  128439
#  145668
#  162444
#
# Disc length: 2408 seconds
#
# Revision: 0
# Processed by: cddbd v1.5.1PL2 Copyright (c) Steve Scherf et al.
# Submitted via: Collectorz.com_Music_Collector 6.10
#
DISCID=7f09660b
DTITLE=Dr. Helander and His Medicine Men - Freedom Music
DYEAR=2006
DGENRE=Blues
TTITLE0=Freedom
TTITLE1=Freedom To Freak Out
TTITLE2=High Fever/Shakin' Chills
TTITLE3=Perfect For The Blues
TTITLE4=The Cook's Allright
TTITLE5=Woodyard Street
TTITLE6=On Somebody Else's Business
TTITLE7=Trying So Hard To Forget
TTITLE8=Green Line Woman
TTITLE9=Shoe Shine Boy
TTITLE10=Mornin' Train
EXTD=
EXTT0=
EXTT1=
EXTT2=
EXTT3=
EXTT4=
EXTT5=
EXTT6=
EXTT7=
EXTT8=
EXTT9=
EXTT10=
PLAYORDER=
